<svg width="80" height="35" viewBox="0 0 80 35" fill="none" xmlns="http://www.w3.org/2000/svg">
<path d="M0 17.5C0 16.8557 0.522335 16.3333 1.16667 16.3333H7.08333C7.72766 16.3333 8.25 16.8557 8.25 17.5C8.25 18.1443 7.72766 18.6667 7.08333 18.6667H1.16667C0.522335 18.6667 0 18.1443 0 17.5Z" fill="#1C1C1C"/>
<path d="M10.25 17.5C10.25 16.8557 10.7723 16.3333 11.4167 16.3333H17.3333C17.9777 16.3333 18.5 16.8557 18.5 17.5C18.5 18.1443 17.9777 18.6667 17.3333 18.6667H11.4167C10.7723 18.6667 10.25 18.1443 10.25 17.5Z" fill="#1C1C1C" fill-opacity="0.4"/>
<path d="M20.5 17.5C20.5 16.8557 21.0223 16.3333 21.6667 16.3333H27.5833C28.2277 16.3333 28.75 16.8557 28.75 17.5C28.75 18.1443 28.2277 18.6667 27.5833 18.6667H21.6667C21.0223 18.6667 20.5 18.1443 20.5 17.5Z" fill="#1C1C1C" fill-opacity="0.1"/>
</svg>
