<svg width="80" height="35" viewBox="0 0 80 35" fill="none" xmlns="http://www.w3.org/2000/svg">
<path d="M0 17.8334C0 17.189 0.522335 16.6667 1.16667 16.6667H10.5C11.1443 16.6667 11.6667 17.189 11.6667 17.8334C11.6667 18.4777 11.1443 19 10.5 19H1.16667C0.522336 19 0 18.4777 0 17.8334Z" fill="#1C1C1C"/>
<path d="M13.6666 17.8334C13.6666 17.189 14.189 16.6667 14.8333 16.6667H24.1666C24.811 16.6667 25.3333 17.189 25.3333 17.8334C25.3333 18.4777 24.811 19 24.1666 19H14.8333C14.189 19 13.6666 18.4777 13.6666 17.8334Z" fill="#1C1C1C" fill-opacity="0.4"/>
<path d="M27.3334 17.8334C27.3334 17.189 27.8557 16.6667 28.5 16.6667H37.8334C38.4777 16.6667 39 17.189 39 17.8334C39 18.4777 38.4777 19 37.8334 19H28.5C27.8557 19 27.3334 18.4777 27.3334 17.8334Z" fill="#1C1C1C" fill-opacity="0.1"/>
</svg>
